<svg width="50" height="50" viewBox="0 0 50 50" fill="none" xmlns="http://www.w3.org/2000/svg">
<g clip-path="url(#clip0_328_909)">
<path d="M13.2148 13.2149L8.79536 8.79546L8.79537 20.5806L20.5805 20.5806L16.1611 16.1612C21.0371 11.2851 28.9626 11.2851 33.8387 16.1612C35.3266 17.649 36.3725 19.4315 36.9323 21.3171L41.2339 21.3171C40.571 18.3561 39.0978 15.5277 36.785 13.2149C30.2737 6.7036 19.7261 6.7036 13.2148 13.2149ZM33.8387 33.8388C28.9626 38.7149 21.0372 38.7149 16.1611 33.8388C14.6732 32.3509 13.6273 30.5684 13.0675 28.6828L8.7659 28.6828C9.42882 31.6438 10.902 34.4723 13.2148 36.7851C19.7261 43.2964 30.2737 43.2964 36.785 36.7851L41.2044 41.2045L41.2044 29.4194L29.4193 29.4194L33.8387 33.8388Z" fill="black" fill-opacity="0.87"/>
</g>
<defs>
<clipPath id="clip0_328_909">
<rect width="50" height="50" fill="white"/>
</clipPath>
</defs>
</svg>
