<svg width="50" height="50" viewBox="0 0 50 50" fill="none" xmlns="http://www.w3.org/2000/svg">
<path d="M18.5 36.1667H19.5V35.1667V20.5833V19.5833H18.5H14.3333H13.3333V20.5833V35.1667V36.1667H14.3333H18.5ZM26.8333 36.1667H27.8333V35.1667V14.3333V13.3333H26.8333H22.6667H21.6667V14.3333V35.1667V36.1667H22.6667H26.8333ZM35.1667 36.1667H36.1667V35.1667V26.8333V25.8333H35.1667H31H30V26.8333V35.1667V36.1667H31H35.1667ZM10.1667 7H39.3333C41.0831 7 42.5 8.41687 42.5 10.1667V39.3333C42.5 41.0831 41.0831 42.5 39.3333 42.5H10.1667C8.41687 42.5 7 41.0831 7 39.3333V10.1667C7 8.41687 8.41687 7 10.1667 7Z" stroke="black" stroke-width="2"/>
</svg>
