<svg width="50" height="50" viewBox="0 0 50 50" fill="none" xmlns="http://www.w3.org/2000/svg">
<g clip-path="url(#clip0_289_693)">
<path d="M50 0H0V50H50V0Z" fill="white" fill-opacity="0.01"/>
<path d="M34.9375 17.625C38.2167 17.625 40.875 15.2465 40.875 12.3125C40.875 9.37849 38.2167 7 34.9375 7C31.6583 7 29 9.37849 29 12.3125C29 15.2465 31.6583 17.625 34.9375 17.625Z" stroke="black" stroke-width="2" stroke-linejoin="round"/>
<path d="M15.9375 30.625C19.2167 30.625 21.875 28.2465 21.875 25.3125C21.875 22.3785 19.2167 20 15.9375 20C12.6583 20 10 22.3785 10 25.3125C10 28.2465 12.6583 30.625 15.9375 30.625Z" stroke="black" stroke-width="2" stroke-linejoin="round"/>
<path d="M30 16L21 22" stroke="black" stroke-width="2" stroke-linecap="round" stroke-linejoin="round"/>
<path d="M21 29L30 35" stroke="black" stroke-width="2" stroke-linecap="round" stroke-linejoin="round"/>
<path d="M34.9375 33C38.2167 33 40.875 35.3785 40.875 38.3125C40.875 41.2465 38.2167 43.625 34.9375 43.625C31.6583 43.625 29 41.2465 29 38.3125C29 35.3785 31.6583 33 34.9375 33Z" stroke="black" stroke-width="2" stroke-linejoin="round"/>
</g>
<defs>
<clipPath id="clip0_289_693">
<rect width="50" height="50" fill="white"/>
</clipPath>
</defs>
</svg>
