<svg width="50" height="50" viewBox="0 0 50 50" fill="none" xmlns="http://www.w3.org/2000/svg">
<g clip-path="url(#clip0_393_1629)">
<path d="M24.9993 29.1667C28.4473 29.1667 31.2285 26.3647 31.2285 22.9167L31.2493 10.4167C31.2493 6.95841 28.4577 4.16675 24.9993 4.16675C21.5514 4.16675 18.7493 6.95841 18.7493 10.4167V22.9167C18.7493 26.3647 21.5514 29.1667 24.9993 29.1667ZM22.4993 10.2084C22.4993 8.83341 23.6243 7.70841 24.9993 7.70841C26.3743 7.70841 27.4993 8.83341 27.4993 10.2084L27.4785 23.1251C27.4785 24.5001 26.3639 25.6251 24.9993 25.6251C23.6243 25.6251 22.4993 24.5001 22.4993 23.1251V10.2084ZM36.041 22.9167C36.041 29.1667 30.7598 33.5417 24.9993 33.5417C19.2493 33.5417 13.9577 29.1667 13.9577 22.9167H10.416C10.416 30.0313 16.0827 35.9063 22.916 36.9167V43.7501H27.0827V36.9167C33.916 35.9063 39.5827 30.0313 39.5827 22.9167H36.041Z" fill="black"/>
</g>
<defs>
<clipPath id="clip0_393_1629">
<rect width="50" height="50" fill="white"/>
</clipPath>
</defs>
</svg>
